<svg width="80" height="70" viewBox="0 0 80 70" fill="none" xmlns="http://www.w3.org/2000/svg">
<rect x="60" y="19" width="20" height="20" fill="#5C98F3" fill-opacity="0.75"/>
<g clip-path="url(#clip0)">
<path d="M63.8582 0.943161C63.765 0.600516 63.533 0.312223 63.2179 0.148112C62.5963 -0.180813 61.8257 0.0564707 61.4966 0.678086C61.4957 0.679669 61.4949 0.681252 61.4941 0.682835C61.4941 0.718015 55.0423 13.2348 35.2364 15.4159C32.6529 15.6915 30.1275 16.3655 27.7503 17.414C23.4952 19.2639 19.981 22.4835 17.7665 26.5606C15.699 30.3904 14.8427 34.7575 15.311 39.0844C15.6559 42.2386 16.7093 45.274 18.3926 47.9636C14.8747 50.4895 3.71591 59.2209 2.70978 68.5927C2.63591 69.292 3.14319 69.9189 3.84255 69.9928C4.54209 70.0667 5.16881 69.5594 5.24268 68.86C6.16438 60.4944 16.6337 52.3821 19.8983 50.0321C23.8173 54.8447 29.6852 57.5605 35.9822 58.0037C40.2204 58.2773 44.4637 57.5545 48.3723 55.893C52.6153 54.1128 56.3626 51.3288 59.2919 47.7807C66.8414 38.6341 70.4367 23.2608 63.8582 0.943161ZM20.63 46.7042C20.1446 45.9396 19.7166 45.14 19.3495 44.312C18.577 42.5648 18.0787 40.7091 17.872 38.81C17.4411 34.9992 18.177 31.1473 19.9827 27.7637C21.9345 24.1765 25.0304 21.3457 28.7775 19.7218C30.9198 18.789 33.1934 18.1934 35.5179 17.9558C48.5904 16.5486 56.2806 10.73 60.2488 6.5085C57.9173 14.1844 53.9032 21.2438 48.499 27.1727L47.725 19.377C47.6856 18.6749 47.0844 18.1375 46.3822 18.1769C45.6801 18.2163 45.1427 18.8175 45.1821 19.5197C45.184 19.5543 45.1874 19.589 45.1921 19.6233L46.1842 29.6423C40.267 35.6439 32.0422 41.6736 20.63 46.7042ZM57.3219 46.1484V46.1554C54.6602 49.3959 51.2509 51.941 47.3873 53.5712C43.8344 55.0726 39.9782 55.7185 36.13 55.4568C30.7727 55.1854 25.7454 52.7868 22.1639 48.7938C26.3611 46.9366 30.4193 44.7804 34.3077 42.342L45.4876 44.4527C46.1824 44.5616 46.8339 44.0865 46.9428 43.3917C47.0478 42.7216 46.609 42.0866 45.945 41.948L37.3542 40.3227C41.3208 37.5984 45.0132 34.4951 48.3794 31.0565C48.4411 31.0034 48.4976 30.9445 48.5482 30.8806C57.4274 21.6355 61.2057 12.489 62.7817 6.86029C67.1299 25.4067 63.8019 38.3105 57.3219 46.1484Z" fill="black" fill-opacity="0.7"/>
</g>
<defs>
<clipPath id="clip0">
<rect width="70" height="70" fill="white"/>
</clipPath>
</defs>
</svg>
