<svg width="70" height="70" viewBox="0 0 70 70" fill="none" xmlns="http://www.w3.org/2000/svg">
<circle cx="60" cy="27" r="10" fill="#5C98F3" fill-opacity="0.75"/>
<g clip-path="url(#clip0)">
<path d="M66.5572 55.6773H65.4097V52.8085C65.3907 37.1691 53.5254 24.0874 37.9619 22.5458C38.3386 20.7659 39.2028 19.1261 40.4578 17.8087H42.4591C43.0931 17.8087 43.6066 17.2952 43.6066 16.6612C43.6066 16.0277 43.0931 15.5137 42.4591 15.5137H26.3936C25.7601 15.5137 25.2461 16.0277 25.2461 16.6612C25.2461 17.2952 25.7601 17.8087 26.3936 17.8087H28.3949C29.6792 19.1603 30.5493 20.8517 30.9011 22.6826C15.8408 24.7496 4.61169 37.6071 4.59052 52.8085V55.6773C3.68186 55.6707 2.80956 56.0328 2.17285 56.6804C1.51225 57.3198 1.14205 58.2013 1.14802 59.1203C1.14802 61.0212 2.68906 62.5628 4.59052 62.5628H10.328C10.3286 64.2585 10.9582 65.8946 12.0954 67.1528H8.03302C7.39956 67.1528 6.88552 67.6668 6.88552 68.3003C6.88552 68.9343 7.39956 69.4478 8.03302 69.4478H17.2136C21.0143 69.444 24.0948 66.3635 24.0986 62.5628H47.0491C47.0497 64.2585 47.6793 65.8946 48.8165 67.1528H44.7541C44.1207 67.1528 43.6066 67.6668 43.6066 68.3003C43.6066 68.9343 44.1207 69.4478 44.7541 69.4478H53.9347C57.7354 69.444 60.8159 66.3635 60.8197 62.5628H66.5572C68.4543 62.5519 69.9893 61.0169 70.0002 59.1203C70.0002 57.2188 68.4586 55.6773 66.5572 55.6773ZM31.3179 17.8087H37.5326C36.562 19.1793 35.9242 20.7567 35.6691 22.416C35.4466 22.416 35.2251 22.3992 35.0004 22.3992C34.3897 22.3992 33.785 22.422 33.1836 22.4573C32.9344 20.7833 32.2955 19.1907 31.3179 17.8087ZM6.88552 52.8085C6.88552 37.2814 19.4727 24.6942 35.0004 24.6942C50.5274 24.6942 63.1147 37.2814 63.1147 52.8085V55.6773H6.88552V52.8085ZM4.59052 60.2678C3.95652 60.2678 3.44302 59.7538 3.44302 59.1203C3.44248 58.8109 3.5695 58.5156 3.79422 58.3028C4.0032 58.089 4.29089 57.9695 4.59052 57.9728H12.0954C11.4951 58.6415 11.031 59.421 10.7297 60.2678H4.59052ZM17.2136 67.1528C14.6781 67.1528 12.623 65.0977 12.623 62.5628C12.623 60.0279 14.6781 57.9728 17.2136 57.9728C19.7485 57.9728 21.8036 60.0279 21.8036 62.5628C21.8036 65.0977 19.7485 67.1528 17.2136 67.1528ZM23.6969 60.2678C23.3956 59.421 22.9315 58.6415 22.3312 57.9728H48.8165C48.2162 58.6415 47.7521 59.421 47.4508 60.2678H23.6969ZM53.9347 67.1528C51.3992 67.1528 49.3441 65.0977 49.3441 62.5628C49.3441 60.0279 51.3992 57.9728 53.9347 57.9728C56.4696 57.9728 58.5247 60.0279 58.5247 62.5628C58.5247 65.0977 56.4696 67.1528 53.9347 67.1528ZM67.354 59.9372C67.1445 60.1511 66.8568 60.2705 66.5572 60.2678H60.418C60.1167 59.421 59.6532 58.6415 59.0523 57.9728H66.5572C67.1912 57.9728 67.7047 58.4863 67.7047 59.1203C67.7052 59.4292 67.5782 59.725 67.354 59.9372Z" fill="black" fill-opacity="0.7"/>
<path d="M14.9186 39.6125H20.6561C21.2896 39.6125 21.8036 39.0985 21.8036 38.465C22.0012 35.834 22.7438 33.273 23.9841 30.9449C24.2083 30.489 24.1057 29.9391 23.7322 29.5949C23.3582 29.2503 22.8024 29.1927 22.366 29.4533C22.1201 29.5998 16.3147 33.1254 13.897 37.9564C13.7217 38.3109 13.7418 38.7304 13.9492 39.067C14.1565 39.4035 14.5229 39.6098 14.9186 39.6125ZM20.3831 33.7344C20.014 34.9031 19.7502 36.1022 19.5944 37.317H16.9645C17.9584 35.992 19.1058 34.7896 20.3831 33.7344Z" fill="black" fill-opacity="0.7"/>
<path d="M20.4358 52.9073C20.6529 52.6093 20.7137 52.225 20.5987 51.8743C19.9435 49.0446 19.9554 46.1015 20.6334 43.2773C20.6996 42.9407 20.6122 42.5917 20.3946 42.3268C20.1769 42.0614 19.8518 41.9072 19.5087 41.9072H12.6232C12.3192 41.9072 12.0272 42.0283 11.8122 42.2432C11.5435 42.5119 9.18066 45.081 9.18066 52.2347C9.18066 52.8687 9.6947 53.3822 10.3282 53.3822H19.5087C19.8756 53.3817 20.2203 53.2047 20.4358 52.9073ZM18.0833 51.0872H11.5001C11.6673 47.0162 12.7084 44.9502 13.1904 44.2022H18.143C17.7723 46.4809 17.7522 48.8025 18.0833 51.0872Z" fill="black" fill-opacity="0.7"/>
<path d="M3.44295 69.4654C4.07641 69.4654 4.59045 68.9514 4.59045 68.3179C4.59045 67.6839 4.07641 67.1704 3.44295 67.1704H2.29545C1.66145 67.1704 1.14795 67.6839 1.14795 68.3179C1.14795 68.9514 1.66145 69.4654 2.29545 69.4654H3.44295Z" fill="black" fill-opacity="0.7"/>
<path d="M40.1641 69.4654C40.7981 69.4654 41.3116 68.9514 41.3116 68.3179C41.3116 67.6839 40.7981 67.1704 40.1641 67.1704H39.0166C38.3826 67.1704 37.8691 67.6839 37.8691 68.3179C37.8691 68.9514 38.3826 69.4654 39.0166 69.4654H40.1641Z" fill="black" fill-opacity="0.7"/>
<path d="M8.95082 5.60346C11.3115 6.27492 13.2244 6.94746 14.5738 8.9374C14.7611 9.2126 14.9353 9.49812 15.1085 9.7831C15.4445 10.3639 15.8244 10.9181 16.2446 11.4408C17.7433 13.2207 20.2613 13.8167 23.7359 13.2061C24.5528 13.0638 25.3551 12.8695 26.1307 12.6817C27.1947 12.3984 28.2759 12.1872 29.3681 12.0482C30.8896 11.8203 32.442 12.1487 33.7415 12.9732C33.811 13.0258 33.8799 13.0823 33.9456 13.1404L33.9705 13.1626C34.4433 13.5703 35.155 13.5258 35.5729 13.0622C35.9909 12.5987 35.9616 11.8859 35.5072 11.4582L35.4806 11.4343C34.9954 10.9957 34.5443 10.524 34.1041 10.0675C32.689 8.59054 31.2272 7.06416 28.6184 6.65488C27.6604 6.52624 26.6947 6.4611 25.728 6.45947C23.6794 6.41279 21.7438 6.36882 20.3932 5.05414C20.0708 4.73931 19.769 4.40765 19.4748 4.07871C18.6861 3.11576 17.7367 2.29666 16.6679 1.65832C15.1302 0.858762 13.4122 0.468481 11.6801 0.525476C10.3344 0.574329 8.99967 0.78494 7.70507 1.15351C7.04936 1.32992 6.40341 1.53565 5.76073 1.75114C5.631 1.79511 5.44535 1.87653 5.23637 1.97152C5.04205 2.06489 4.84284 2.14794 4.63982 2.22067C4.02754 2.17562 3.48853 2.62018 3.41579 3.22975C3.34359 3.83879 3.76319 4.39734 4.36896 4.49722C5.82966 4.78056 7.36961 5.1551 8.95082 5.60346ZM11.7295 2.82102C13.0631 2.76511 14.3887 3.05986 15.5736 3.67594C16.4117 4.19921 17.1565 4.85818 17.778 5.62626C18.1086 5.99049 18.4413 6.35525 18.7979 6.70048C20.7938 8.64428 23.3879 8.70399 25.6835 8.75719C26.5487 8.7561 27.4129 8.81201 28.271 8.92437C28.9957 9.03293 29.6878 9.29945 30.2984 9.70493C29.9103 9.70602 29.5222 9.72664 29.1363 9.76681C27.9421 9.91663 26.7593 10.1468 25.5961 10.4551C24.8465 10.6364 24.1044 10.8177 23.3423 10.9512C20.7325 11.4099 18.9369 11.0761 18.0038 9.96765C17.6591 9.53232 17.3481 9.07202 17.0723 8.59054C16.878 8.27246 16.6831 7.95491 16.4742 7.64714C14.6889 5.02645 12.1903 4.14168 9.57397 3.39585L8.91879 3.21347C9.8394 2.98386 10.7812 2.8525 11.7295 2.82102Z" fill="black" fill-opacity="0.7"/>
<path d="M8.3402 19.3005C9.4459 20.2808 10.6922 21.0912 12.0373 21.703C13.1392 22.1611 14.3198 22.3994 15.5134 22.4043C17.1153 22.4287 18.6813 21.932 19.9759 20.9881C20.6376 20.4838 21.2227 19.8862 21.7134 19.2142C21.9018 18.9254 22.07 18.6242 22.2171 18.312C22.3697 18.0222 22.5282 17.7074 22.6335 17.5364C22.9749 17.1792 23.0493 16.6435 22.818 16.207C22.5868 15.7701 22.1021 15.5307 21.6146 15.6121C19.6589 15.8824 17.6668 15.6859 15.8011 15.0384C14.5375 14.6079 13.3064 14.0879 12.1165 13.4821C11.6459 13.2531 11.1758 13.0327 10.6982 12.8145C8.85044 12.0638 6.82413 11.8673 4.86622 12.2489C3.79634 12.4291 2.74817 12.7222 1.73963 13.1233C1.60936 13.1798 1.4818 13.2433 1.35858 13.3139C1.2435 13.373 1.1116 13.4512 0.999239 13.5017C0.535137 13.5625 0.154084 13.899 0.0362945 14.3523C-0.122749 14.9651 0.245276 15.5915 0.858109 15.7511C2.60216 16.1522 4.29247 16.7585 5.89375 17.5581C6.76117 18.0618 7.58027 18.6448 8.3402 19.3005ZM5.24184 14.5129C6.74977 14.2057 8.31469 14.3419 9.74716 14.9054C10.2058 15.1165 10.6651 15.3342 11.1237 15.5535C12.4102 16.2054 13.7406 16.765 15.1058 17.2291C16.5996 17.7166 18.1553 17.9874 19.7256 18.0325C19.3989 18.4526 19.0189 18.8293 18.5955 19.1523C16.8981 20.2596 14.7524 20.4198 12.9096 19.5768C11.7718 19.0443 10.7172 18.3484 9.78027 17.5114C8.91232 16.765 7.97489 16.1034 6.98155 15.535C6.29598 15.1714 5.58815 14.8522 4.86187 14.5791C4.99052 14.5563 5.11645 14.5336 5.24293 14.5118L5.24184 14.5129Z" fill="black" fill-opacity="0.7"/>
</g>
<defs>
<clipPath id="clip0">
<rect width="70" height="70" fill="white"/>
</clipPath>
</defs>
</svg>
