<svg width="70" height="70" viewBox="0 0 70 70" fill="none" xmlns="http://www.w3.org/2000/svg">
<path d="M50 20L58.6603 35H41.3397L50 20Z" fill="#5C98F3" fill-opacity="0.75"/>
<path d="M54.8332 39.6666C54.158 39.6666 53.493 39.7116 52.8408 39.7976C50.3047 36.253 44.0003 26.4563 43.8056 16.4604C43.7974 16.2971 42.7848 0.131797 26.8235 0C10.8822 0.131797 9.86833 16.2971 9.85903 16.4979C9.65491 27.062 2.57315 37.4443 0.407798 40.3725C-0.186108 41.1739 -0.0343507 42.2987 0.75315 42.9321C3.55547 45.185 9.02956 45.4871 9.31995 45.5H18.6487C18.679 45.6318 18.679 45.8162 18.6312 45.9141L18.448 46.2898C18.2146 46.7775 17.951 47.327 17.6908 47.4927L9.44477 50.6182C5.83512 51.9868 3.0596 54.8707 1.82995 58.5305L0.0613525 63.7957C-0.0588233 64.1516 -0.000444385 64.5423 0.218853 64.8469C0.43815 65.1526 0.790474 65.3334 1.16618 65.3334H43.8997C46.6614 68.2079 50.5419 70 54.8332 70C63.1959 70 70 63.1961 70 54.8334C70 46.4707 63.1959 39.6666 54.8332 39.6666ZM2.78903 63L4.04083 59.2737C5.04762 56.28 7.31921 53.92 10.2721 52.8L18.5915 49.6464C18.6289 49.6325 18.6651 49.6161 18.7001 49.5986C19.6871 49.105 20.1467 48.1461 20.5528 47.2991L20.7208 46.9526C21.1396 46.108 21.086 44.9564 20.5878 44.1526C20.2004 43.5262 19.5797 43.1668 18.889 43.1668L9.37833 43.168C8.09263 43.1039 4.52262 42.6546 2.5696 41.3701C5.11639 37.8468 11.9823 27.3632 12.19 16.5819C12.2214 16.0044 13.1175 2.44658 26.8235 2.33338C40.5482 2.44658 41.4442 16.0044 41.4746 16.5434C41.6664 26.4547 47.4422 36.082 50.37 40.3372C48.4836 40.9192 46.7533 41.8604 45.2588 43.0802C44.6921 43.1442 44.3278 43.1659 44.3454 43.167H34.7775C34.1079 43.167 33.5024 43.5065 33.1174 44.0992C32.6134 44.8774 32.534 46.0335 32.9657 46.9983C33.3974 47.9631 33.8863 49.0574 34.9666 49.5988C35.0016 49.6163 35.0378 49.6315 35.0752 49.6455L40.0312 51.5253C39.7933 52.5906 39.6669 53.6974 39.6669 54.8334C39.6669 57.8379 40.5452 60.6412 42.0584 63H2.78903ZM40.7159 49.2893L35.9744 47.4919C35.6535 47.2947 35.356 46.6297 35.0562 45.9565C35.0014 45.8352 35.0024 45.638 35.0305 45.5004L42.8878 45.4985C41.9922 46.6421 41.2568 47.917 40.7159 49.2893ZM54.8332 67.6666C51.0901 67.6666 47.7163 66.0553 45.3683 63.4901C45.3188 63.4208 45.2618 63.3574 45.1987 63.3005C43.2089 61.0392 42 58.0748 42 54.8334C42 53.5752 42.1829 52.3589 42.5221 51.2091C42.5381 51.1654 42.5508 51.1213 42.5615 51.0772C43.2771 48.7443 44.6406 46.6921 46.4417 45.1318C46.4779 45.1049 46.512 45.0756 46.5447 45.0447C48.1903 43.649 50.1909 42.6602 52.3901 42.2345C52.4844 42.2291 52.5789 42.2123 52.672 42.1831C53.375 42.0633 54.0969 42 54.8334 42C61.9092 42 67.6668 47.7575 67.6668 54.8334C67.6666 61.9091 61.9091 67.6666 54.8332 67.6666Z" fill="black" fill-opacity="0.7"/>
</svg>
