<svg width="25" height="28" viewBox="0 0 25 28" fill="none" xmlns="http://www.w3.org/2000/svg">
<g clip-path="url(#clip0)">
<path d="M23.074 17.6603C22.7301 17.6603 22.4514 17.9682 22.4514 18.348V24.4539C22.4502 25.5929 21.6147 26.5159 20.5835 26.517H3.11315C2.08192 26.5159 1.24647 25.5929 1.24526 24.4539V6.53345C1.24647 5.39473 2.08192 4.47172 3.11315 4.47038H8.64142C8.98532 4.47038 9.26405 4.16253 9.26405 3.78269C9.26405 3.40312 8.98532 3.095 8.64142 3.095H3.11315C1.39459 3.09715 0.00194572 4.63532 0 6.53345V24.4542C0.00194572 26.3523 1.39459 27.8905 3.11315 27.8927H20.5835C22.3021 27.8905 23.6947 26.3523 23.6966 24.4542V18.348C23.6966 17.9682 23.4179 17.6603 23.074 17.6603Z" fill="white"/>
<path d="M23.4501 1.32401C22.3559 0.115447 20.5819 0.115447 19.4877 1.32401L8.37959 13.5928C8.30346 13.6769 8.24849 13.7811 8.2198 13.8956L6.75905 19.7202C6.69897 19.9591 6.76002 20.2148 6.9186 20.3902C7.07742 20.5653 7.30896 20.6328 7.52517 20.5667L12.7988 18.953C12.9024 18.9213 12.9968 18.8606 13.0729 18.7765L24.1808 6.50747C25.2733 5.2981 25.2733 3.34034 24.1808 2.13097L23.4501 1.32401ZM9.73624 14.0398L18.8274 3.99848L21.7593 7.23679L12.6679 17.2781L9.73624 14.0398ZM9.15058 15.3378L11.493 17.9253L8.25287 18.9168L9.15058 15.3378ZM23.3003 5.53503L22.64 6.26436L19.7078 3.02577L20.3684 2.29644C20.9762 1.62514 21.9617 1.62514 22.5695 2.29644L23.3003 3.1034C23.9071 3.77551 23.9071 4.86319 23.3003 5.53503Z" fill="white"/>
</g>
<defs>
<clipPath id="clip0">
<rect width="25" height="27.6123" fill="white" transform="translate(0 0.314453)"/>
</clipPath>
</defs>
</svg>
