<svg width="32" height="31" viewBox="0 0 32 31" fill="none" xmlns="http://www.w3.org/2000/svg">
<path d="M32 15.0928C32 7.14636 25.2852 0.706055 17 0.706055C8.71484 0.706055 2 7.14636 2 15.0928C2 23.0392 8.71484 29.4795 17 29.4795C17.0879 29.4795 17.1758 29.4795 17.2637 29.4739V18.2792H14.041V14.6769H17.2637V12.0244C17.2637 8.95032 19.2207 7.27562 22.0801 7.27562C23.4512 7.27562 24.6289 7.37115 24.9688 7.41611V10.6306H23C21.4473 10.6306 21.1426 11.3387 21.1426 12.3784V14.6713H24.8633L24.377 18.2736H21.1426V28.9231C27.4121 27.1978 32 21.6623 32 15.0928Z" fill="#CCCCCC" fill-opacity="0.38"/>
</svg>
