<svg width="24" height="28" viewBox="0 0 24 28" fill="none" xmlns="http://www.w3.org/2000/svg">
<path d="M23.0625 13.042H0.9375C0.419719 13.042 0 13.5249 0 14.1206C0 14.7163 0.419719 15.1992 0.9375 15.1992H23.0625C23.5803 15.1992 24 14.7163 24 14.1206C24 13.5249 23.5803 13.042 23.0625 13.042Z" fill="white"/>
<path d="M23.0625 4.41315H0.9375C0.419719 4.41315 0 4.89604 0 5.49175C0 6.08747 0.419719 6.57036 0.9375 6.57036H23.0625C23.5803 6.57036 24 6.08747 24 5.49175C24 4.89604 23.5803 4.41315 23.0625 4.41315Z" fill="white"/>
<path d="M23.0625 21.6709H0.9375C0.419719 21.6709 0 22.1537 0 22.7495C0 23.3452 0.419719 23.8281 0.9375 23.8281H23.0625C23.5803 23.8281 24 23.3452 24 22.7495C24 22.1537 23.5803 21.6709 23.0625 21.6709Z" fill="white"/>
</svg>
