<svg width="30" height="30" viewBox="0 0 30 30" fill="none" xmlns="http://www.w3.org/2000/svg">
<path d="M15 0C6.717 0 0 6.717 0 15C0 23.283 6.717 30 15 30C23.283 30 30 23.283 30 15C30 6.717 23.283 0 15 0ZM16.9352 23.4707C13.244 23.5343 11.8458 20.8413 11.8458 18.9457V13.4097H10.1308V11.2212C12.7016 10.2942 13.3195 7.97562 13.4647 6.65474C13.4747 6.56387 13.5461 6.52817 13.5869 6.52817H16.0682V10.8444H19.4593V13.41H16.0565V18.6845C16.0675 19.4016 16.3307 20.3909 17.6873 20.3545C18.1366 20.3432 18.739 20.2126 19.0542 20.0622L19.869 22.478C19.5637 22.9282 18.1805 23.4494 16.9352 23.4707Z" fill="#6E6D6D"/>
</svg>
